#N canvas 0 23 1440 851 12;
#X obj 43 20 bng 15 250 50 0 empty empty empty 17 7 0 10 -262144 -1
-1;
#N canvas 199 81 797 509 adsr 0;
#X obj 98 178 * 1;
#X obj 191 180 * 1;
#X obj 273 177 * 1;
#X obj 371 177 * 1;
#X obj 149 258 +;
#X obj 149 235 bng 10 250 50 0 empty empty empty 17 7 0 10 -262144
-1 -1;
#X floatatom 149 286 8 0 0 0 - - -, f 8;
#X floatatom 98 205 8 0 0 0 - - -, f 8;
#X floatatom 191 207 8 0 0 0 - - -, f 8;
#X obj 325 259 +;
#X obj 325 236 bng 10 250 50 0 empty empty empty 17 7 0 10 -262144
-1 -1;
#X floatatom 325 288 8 0 0 0 - - -, f 8;
#X floatatom 273 206 8 0 0 0 - - -, f 8;
#X floatatom 367 208 8 0 0 0 - - -, f 8;
#X obj 244 282 +;
#X obj 244 259 bng 10 250 50 0 empty empty empty 17 7 0 10 -262144
-1 -1;
#X floatatom 244 310 8 0 0 0 - - -, f 8;
#X obj 511 589 outlet;
#X text 565 591 adsr total time (ms);
#X obj 23 292 inlet~;
#X obj 349 182 bng 10 250 50 0 empty empty empty 17 7 0 10 -262144
-1 -1;
#X obj 251 181 bng 10 250 50 0 empty empty empty 17 7 0 10 -262144
-1 -1;
#X obj 169 182 bng 10 250 50 0 empty empty empty 17 7 0 10 -262144
-1 -1;
#X obj 74 180 bng 10 250 50 0 empty empty empty 17 7 0 10 -262144 -1
-1;
#X obj -28 292 inlet;
#X text -31 272 trig;
#X text 25 272 sound;
#X obj 149 538 *~;
#X obj 149 585 outlet~;
#X text 139 438 attack;
#X text 227 438 decay;
#X text 313 438 sus;
#X text 393 438 rel;
#X obj -28 354 bng 15 250 50 0 empty empty empty 17 7 0 10 -262144
-1 -1;
#X msg 337 405 0;
#X obj 189 501 vline~;
#X obj 453 429 +;
#X obj 453 406 bng 10 250 50 0 empty empty empty 17 7 0 10 -262144
-1 -1;
#X obj 172 391 f;
#X obj 254 391 f;
#X obj 135 457 pack 0 0;
#X obj 219 457 pack 0 0 0;
#X obj 302 457 pack 0 0 0;
#X obj 385 457 pack 0 0 0;
#X obj 719 72 inlet;
#X text 718 53 note vol;
#X obj 171 420 * 1;
#X obj 253 420 * 1;
#X text 97 48 attack;
#X text 191 48 decay;
#X text 269 48 sustain;
#X text 369 48 release;
#X obj 98 66 inlet;
#X obj 191 66 inlet;
#X obj 273 66 inlet;
#X obj 371 66 inlet;
#X obj 478 67 inlet;
#X text 548 49 att level;
#X obj 550 67 inlet;
#X text 629 48 sust level;
#X obj 632 67 inlet;
#X text 225 607 attack t;
#X obj 226 585 outlet;
#X text 298 607 decay t;
#X obj 299 585 outlet;
#X text 373 605 sust t;
#X obj 373 585 outlet;
#X text 445 607 rel t;
#X obj 445 588 outlet;
#X obj 98 108 / 100;
#X obj 191 108 / 100;
#X obj 273 108 / 100;
#X obj 371 108 / 100;
#X text 475 49 seg len;
#X connect 0 0 7 0;
#X connect 1 0 8 0;
#X connect 2 0 12 0;
#X connect 3 0 13 0;
#X connect 4 0 6 0;
#X connect 5 0 4 0;
#X connect 6 0 14 0;
#X connect 6 0 36 0;
#X connect 6 0 42 2;
#X connect 7 0 4 0;
#X connect 7 0 40 1;
#X connect 7 0 41 2;
#X connect 7 0 62 0;
#X connect 8 0 4 1;
#X connect 8 0 5 0;
#X connect 8 0 41 1;
#X connect 8 0 64 0;
#X connect 9 0 11 0;
#X connect 10 0 9 0;
#X connect 11 0 14 1;
#X connect 11 0 15 0;
#X connect 12 0 9 0;
#X connect 12 0 36 1;
#X connect 12 0 37 0;
#X connect 12 0 42 1;
#X connect 12 0 66 0;
#X connect 13 0 9 1;
#X connect 13 0 10 0;
#X connect 13 0 43 1;
#X connect 13 0 68 0;
#X connect 14 0 16 0;
#X connect 15 0 14 0;
#X connect 16 0 17 0;
#X connect 19 0 27 0;
#X connect 20 0 3 0;
#X connect 21 0 2 0;
#X connect 22 0 1 0;
#X connect 23 0 0 0;
#X connect 24 0 33 0;
#X connect 27 0 28 0;
#X connect 33 0 38 0;
#X connect 33 0 39 0;
#X connect 33 0 34 0;
#X connect 34 0 43 0;
#X connect 35 0 27 1;
#X connect 36 0 43 2;
#X connect 37 0 36 0;
#X connect 38 0 46 0;
#X connect 39 0 47 0;
#X connect 40 0 35 0;
#X connect 41 0 35 0;
#X connect 42 0 35 0;
#X connect 43 0 35 0;
#X connect 44 0 47 1;
#X connect 44 0 46 1;
#X connect 46 0 40 0;
#X connect 47 0 41 0;
#X connect 47 0 42 0;
#X connect 52 0 69 0;
#X connect 53 0 70 0;
#X connect 54 0 71 0;
#X connect 55 0 72 0;
#X connect 56 0 0 1;
#X connect 56 0 1 1;
#X connect 56 0 2 1;
#X connect 56 0 3 1;
#X connect 56 0 20 0;
#X connect 56 0 21 0;
#X connect 56 0 22 0;
#X connect 56 0 23 0;
#X connect 58 0 38 1;
#X connect 60 0 39 1;
#X connect 69 0 0 0;
#X connect 70 0 1 0;
#X connect 71 0 2 0;
#X connect 72 0 3 0;
#X coords 0 -1 1 1 100 15 1 100 100;
#X restore 154 366 pd adsr;
#X obj 409 189 hsl 100 15 0 100 0 0 empty empty attack 5 7 0 10 -262144
-1 -1 99 1;
#X obj 409 215 hsl 100 15 0 100 0 0 empty empty decay 5 7 0 10 -262144
-1 -1 990 1;
#X obj 409 240 hsl 100 15 0 100 0 0 empty empty sustain 5 7 0 10 -262144
-1 -1 198 1;
#X obj 409 267 hsl 100 15 0 100 0 0 empty empty release 5 7 0 10 -262144
-1 -1 4950 1;
#X obj 409 292 hsl 100 15 0 4000 0 0 empty empty segment_length 5 7
0 10 -262144 -1 -1 1856 1;
#X obj 409 317 hsl 100 15 0 1 0 0 empty empty attack_level 5 7 0 10
-262144 -1 -1 9900 1;
#X obj 409 344 hsl 100 15 0 1 0 0 empty empty sustain_level 5 7 0 10
-262144 -1 -1 2475 1;
#X obj 409 369 hsl 100 15 0 1 0 0 empty empty note_volume 5 7 0 10
-262144 -1 -1 4950 1;
#X floatatom 107 462 5 0 0 3 attack - -, f 5;
#X floatatom 165 462 5 0 0 3 decay - -, f 5;
#X floatatom 221 462 5 0 0 3 sustain - -, f 5;
#X floatatom 280 462 5 0 0 3 release - -, f 5;
#X floatatom 339 462 5 0 0 3 total_time(ms) - -, f 5;
#X obj 52 333 r notebang;
#X obj 42 45 s notebang;
#X obj 131 285 osc~ 440;
#X obj 539 136 loadbang;
#X msg 539 164 1;
#X obj 613 159 loadbang;
#X msg 611 196 10;
#X obj 683 190 loadbang;
#X obj 735 236 loadbang;
#X obj 802 268 loadbang;
#X obj 875 305 loadbang;
#X obj 947 346 loadbang;
#X msg 683 218 2;
#X msg 735 263 50;
#X msg 802 296 750;
#X msg 875 333 1;
#X msg 947 374 0.25;
#X obj 1039 374 loadbang;
#X msg 1039 402 0.5;
#X obj 31 69 inlet;
#X obj 134 208 r notepitch;
#X obj 28 164 trigger bang anything;
#X obj 78 271 bng 15 250 50 0 empty empty empty 17 7 0 10 -262144 -1
-1;
#X obj 36 467 outlet~;
#X obj 133 256 mtof;
#X msg 163 95 60 100;
#X obj 29 129 unpack 0 0;
#X obj 255 266 expr~ $v1 * $v1;
#X connect 0 0 16 0;
#X connect 1 0 38 0;
#X connect 1 1 10 0;
#X connect 1 2 11 0;
#X connect 1 3 12 0;
#X connect 1 4 13 0;
#X connect 1 5 14 0;
#X connect 2 0 1 2;
#X connect 3 0 1 3;
#X connect 4 0 1 4;
#X connect 5 0 1 5;
#X connect 6 0 1 6;
#X connect 7 0 1 7;
#X connect 8 0 1 8;
#X connect 9 0 1 9;
#X connect 15 0 1 0;
#X connect 17 0 1 1;
#X connect 17 0 42 0;
#X connect 18 0 19 0;
#X connect 19 0 2 0;
#X connect 20 0 21 0;
#X connect 21 0 3 0;
#X connect 22 0 27 0;
#X connect 23 0 28 0;
#X connect 24 0 29 0;
#X connect 25 0 30 0;
#X connect 26 0 31 0;
#X connect 27 0 4 0;
#X connect 28 0 5 0;
#X connect 29 0 6 0;
#X connect 30 0 7 0;
#X connect 31 0 8 0;
#X connect 32 0 33 0;
#X connect 33 0 9 0;
#X connect 34 0 41 0;
#X connect 35 0 39 0;
#X connect 36 0 37 0;
#X connect 36 1 39 0;
#X connect 37 0 1 0;
#X connect 39 0 17 0;
#X connect 40 0 41 0;
#X connect 41 0 36 0;
#X connect 42 0 1 1;
