#N canvas 96 154 686 561 12;
#X obj 186 441 dac~;
#X obj 40 291 bounce;
#X obj 185 408 *~ 1;
#X obj 60 220 route 1 2 3 4 5 6 7 8 9 10;
#X obj 46 176 pack 0 0 0;
#X obj 278 292 bounce;
#X obj 104 292 bounce;
#X obj 163 292 bounce;
#X obj 221 292 bounce;
#X obj 338 291 bounce;
#X obj 576 292 bounce;
#X obj 402 292 bounce;
#X obj 461 292 bounce;
#X obj 519 292 bounce;
#X obj 46 146 poly 10 1;
#X obj 47 80 r bouncekey;
#X msg 47 112 \$1 100;
#X connect 1 0 2 0;
#X connect 2 0 0 0;
#X connect 2 0 0 1;
#X connect 3 0 1 0;
#X connect 3 1 6 0;
#X connect 3 2 7 0;
#X connect 3 3 8 0;
#X connect 3 4 5 0;
#X connect 3 5 9 0;
#X connect 3 6 11 0;
#X connect 3 7 12 0;
#X connect 3 8 13 0;
#X connect 3 9 10 0;
#X connect 4 0 3 0;
#X connect 5 0 2 0;
#X connect 6 0 2 0;
#X connect 7 0 2 0;
#X connect 8 0 2 0;
#X connect 9 0 2 0;
#X connect 10 0 2 0;
#X connect 11 0 2 0;
#X connect 12 0 2 0;
#X connect 13 0 2 0;
#X connect 14 0 4 0;
#X connect 14 1 4 1;
#X connect 14 2 4 2;
#X connect 15 0 16 0;
#X connect 16 0 14 0;
